<?xml version="1.0" encoding="utf-8"?>
<!-- Generator: Adobe Illustrator 21.0.2, SVG Export Plug-In . SVG Version: 6.00 Build 0)  -->
<svg version="1.1" id="Layer_1" xmlns="http://www.w3.org/2000/svg" xmlns:xlink="http://www.w3.org/1999/xlink" x="0px" y="0px"
	 viewBox="0 0 263.6 99.9" style="enable-background:new 0 0 263.6 99.9;" xml:space="preserve">
<style type="text/css">
	.st0{fill:none;stroke:#FFFFFF;}
	.st1{font-family:'Langdon';}
	.st2{font-size:60px;}
	.st3{display:none;fill:none;stroke:#FFFFFF;}
	.st4{fill:#FFFFFF;}
</style>
<text transform="matrix(1 0 0 1 0.5002 51.4997)" class="st0 st1 st2">smoky lids</text>
<path class="st3" d="M148.6,73.2c0,0,22.2,5.1,30.5,5.1c-2.7,0-2.1,2.4,30.5-5.1"/>
<path class="st3" d="M54.6,73.2c0,0,20.7,5.1,29,5.1c-2.7,0-2.2,2.3,32-5.1"/>
<g>
	<g>
		<path class="st4" d="M128.8,75.9c7.3,7,17.8,8.7,27.6,9c10.2,0.4,19.5-5.6,28.5-9.7c1.7-0.8-1-0.8-1.7-0.5
			c-4.2,1.9-8.3,3.8-12.5,5.7c-5.7,2.6-11.1,3.5-17.3,2.9c-8-0.8-15.9-2.7-21.8-8.4C130.9,74.4,128.3,75.5,128.8,75.9L128.8,75.9z"
			/>
	</g>
</g>
<g>
	<g>
		<path class="st4" d="M106,75.5c-6.7,6.4-16.3,8-25.2,8.2c-9.1,0.2-18-5.6-26-9.2c-0.8-0.4-3.1,0.8-2.7,1
			c5.7,2.6,11.4,5.5,17.3,7.8c5,2,9.9,1.8,15.1,1.3c8.8-0.9,17.6-3,24.2-9.3C109.3,74.7,106.6,75,106,75.5L106,75.5z"/>
	</g>
</g>
<g>
	<g>
		<g>
			<g>
				<path class="st4" d="M76.8,84c-2.5,3-6.7,3.7-10.1,1.7c-0.1-0.1-0.6,0.1-0.5,0.2c3.6,2.2,8.3,1.3,11-1.9
					C77.4,83.8,76.9,83.9,76.8,84L76.8,84z"/>
			</g>
		</g>
		<g>
			<g>
				<path class="st4" d="M74,83.4c-2.5,3-6.7,3.7-10.1,1.7c-0.1-0.1-0.6,0.1-0.5,0.2c3.6,2.2,8.3,1.3,11-1.9
					C74.6,83.2,74.1,83.3,74,83.4L74,83.4z"/>
			</g>
		</g>
		<g>
			<g>
				<path class="st4" d="M75.3,83.8c-2.5,3-6.7,3.7-10.1,1.7c-0.1-0.1-0.6,0.1-0.5,0.2c3.6,2.2,8.3,1.3,11-1.9
					C75.9,83.6,75.4,83.7,75.3,83.8L75.3,83.8z"/>
			</g>
		</g>
	</g>
	<g>
		<g>
			<g>
				<path class="st4" d="M80.6,84.1c-2,3-5.8,4.1-9.1,2.6c-0.1-0.1-0.6,0.1-0.4,0.2c3.5,1.6,7.8,0.4,9.9-2.8
					C81.1,83.9,80.6,83.9,80.6,84.1L80.6,84.1z"/>
			</g>
		</g>
		<g>
			<g>
				<path class="st4" d="M77.9,83.8c-2,3-5.8,4.1-9.1,2.6c-0.1-0.1-0.6,0.1-0.4,0.2c3.5,1.6,7.8,0.4,9.9-2.8
					C78.5,83.6,78,83.7,77.9,83.8L77.9,83.8z"/>
			</g>
		</g>
		<g>
			<g>
				<path class="st4" d="M79.1,84c-2,3-5.8,4.1-9.1,2.6c-0.1-0.1-0.6,0.1-0.4,0.2c3.5,1.6,7.8,0.4,9.9-2.8
					C79.6,83.9,79.2,83.9,79.1,84L79.1,84z"/>
			</g>
		</g>
	</g>
	<g>
		<g>
			<g>
				<path class="st4" d="M83.7,83.9c-1.3,2.5-4.2,3.6-6.8,2.7c-0.1,0-0.4,0.1-0.3,0.2c2.9,1,6.1-0.3,7.5-2.9
					C84.1,83.8,83.7,83.8,83.7,83.9L83.7,83.9z"/>
			</g>
		</g>
		<g>
			<g>
				<path class="st4" d="M81.6,83.9c-1.3,2.5-4.2,3.6-6.8,2.7c-0.1,0-0.4,0.1-0.3,0.2c2.9,1,6.1-0.3,7.5-2.9
					C82,83.8,81.7,83.8,81.6,83.9L81.6,83.9z"/>
			</g>
		</g>
		<g>
			<g>
				<path class="st4" d="M82.5,84c-1.3,2.5-4.2,3.6-6.8,2.7c-0.1,0-0.4,0.1-0.3,0.2c2.9,1,6.1-0.3,7.5-2.9
					C82.9,83.9,82.6,83.9,82.5,84L82.5,84z"/>
			</g>
		</g>
	</g>
	<g>
		<g>
			<g>
				<path class="st4" d="M58.5,76.8c-3.5,3.5-8.9,3.8-12.9,0.9c-0.2-0.1-0.7,0.1-0.6,0.2c4.3,3.2,10.3,2.6,14.1-1.2
					C59.3,76.6,58.7,76.7,58.5,76.8L58.5,76.8z"/>
			</g>
		</g>
		<g>
			<g>
				<path class="st4" d="M55.1,75.7c-3.5,3.5-8.9,3.8-12.9,0.9c-0.2-0.1-0.7,0.1-0.6,0.2c4.3,3.2,10.3,2.6,14.1-1.2
					C55.9,75.5,55.2,75.6,55.1,75.7L55.1,75.7z"/>
			</g>
		</g>
		<g>
			<g>
				<path class="st4" d="M56.6,76.3c-3.5,3.5-8.9,3.8-12.9,0.9c-0.2-0.1-0.7,0.1-0.6,0.2c4.3,3.2,10.3,2.6,14.1-1.2
					C57.3,76.2,56.7,76.2,56.6,76.3L56.6,76.3z"/>
			</g>
		</g>
	</g>
	<g>
		<g>
			<g>
				<path class="st4" d="M61.9,78.8c-3.5,3.5-8.9,3.8-12.9,0.9c-0.2-0.1-0.7,0.1-0.6,0.2c4.3,3.2,10.3,2.6,14.1-1.2
					C62.7,78.6,62,78.7,61.9,78.8L61.9,78.8z"/>
			</g>
		</g>
		<g>
			<g>
				<path class="st4" d="M58.5,77.7c-3.5,3.5-8.9,3.8-12.9,0.9c-0.2-0.1-0.7,0.1-0.6,0.2c4.3,3.2,10.3,2.6,14.1-1.2
					C59.2,77.5,58.6,77.6,58.5,77.7L58.5,77.7z"/>
			</g>
		</g>
		<g>
			<g>
				<path class="st4" d="M60,78.4c-3.5,3.5-8.9,3.8-12.9,0.9c-0.2-0.1-0.7,0.1-0.6,0.2c4.3,3.2,10.3,2.6,14.1-1.2
					C60.7,78.2,60.1,78.2,60,78.4L60,78.4z"/>
			</g>
		</g>
	</g>
	<g>
		<g>
			<g>
				<path class="st4" d="M64.8,81.1c-2.8,2.8-7.1,3-10.2,0.7c-0.1-0.1-0.6,0.1-0.5,0.2c3.4,2.5,8.2,2.1,11.1-0.9
					C65.4,80.9,64.9,81,64.8,81.1L64.8,81.1z"/>
			</g>
		</g>
		<g>
			<g>
				<path class="st4" d="M62.1,80.2c-2.8,2.8-7.1,3-10.2,0.7c-0.1-0.1-0.6,0.1-0.5,0.2c3.4,2.5,8.2,2.1,11.1-0.9
					C62.7,80.1,62.2,80.1,62.1,80.2L62.1,80.2z"/>
			</g>
		</g>
		<g>
			<g>
				<path class="st4" d="M63.2,80.7c-2.8,2.8-7.1,3-10.2,0.7c-0.1-0.1-0.6,0.1-0.5,0.2c3.4,2.5,8.2,2.1,11.1-0.9
					C63.8,80.6,63.3,80.6,63.2,80.7L63.2,80.7z"/>
			</g>
		</g>
	</g>
	<g>
		<g>
			<g>
				<path class="st4" d="M68.2,82.7c-2.8,2.8-7.1,3-10.2,0.7c-0.1-0.1-0.6,0.1-0.5,0.2c3.4,2.5,8.2,2.1,11.1-0.9
					C68.8,82.6,68.3,82.6,68.2,82.7L68.2,82.7z"/>
			</g>
		</g>
		<g>
			<g>
				<path class="st4" d="M65.5,81.8c-2.8,2.8-7.1,3-10.2,0.7c-0.1-0.1-0.6,0.1-0.5,0.2c3.4,2.5,8.2,2.1,11.1-0.9
					C66.1,81.7,65.6,81.7,65.5,81.8L65.5,81.8z"/>
			</g>
		</g>
		<g>
			<g>
				<path class="st4" d="M66.7,82.3c-2.8,2.8-7.1,3-10.2,0.7c-0.1-0.1-0.6,0.1-0.5,0.2c3.4,2.5,8.2,2.1,11.1-0.9
					C67.3,82.2,66.8,82.3,66.7,82.3L66.7,82.3z"/>
			</g>
		</g>
	</g>
	<g>
		<g>
			<g>
				<path class="st4" d="M72.1,83.9c-2.8,2.8-7.1,3-10.2,0.7c-0.1-0.1-0.6,0.1-0.5,0.2c3.4,2.5,8.2,2.1,11.1-0.9
					C72.7,83.8,72.2,83.8,72.1,83.9L72.1,83.9z"/>
			</g>
		</g>
		<g>
			<g>
				<path class="st4" d="M69.4,83c-2.8,2.8-7.1,3-10.2,0.7c-0.1-0.1-0.6,0.1-0.5,0.2c3.4,2.5,8.2,2.1,11.1-0.9
					C70,82.9,69.5,82.9,69.4,83L69.4,83z"/>
			</g>
		</g>
		<g>
			<g>
				<path class="st4" d="M70.5,83.6c-2.8,2.8-7.1,3-10.2,0.7c-0.1-0.1-0.6,0.1-0.5,0.2C63.3,87,68,86.5,71,83.5
					C71.1,83.4,70.6,83.5,70.5,83.6L70.5,83.6z"/>
			</g>
		</g>
	</g>
</g>
<g>
	<g>
		<g>
			<g>
				<path class="st4" d="M162.7,83.5c2.7,3,7.2,3.4,10.6,1.2c0.2-0.1-0.3-0.1-0.4,0c-3.2,2.1-7.3,1.4-9.8-1.4
					C163.1,83.2,162.6,83.4,162.7,83.5L162.7,83.5z"/>
			</g>
		</g>
		<g>
			<g>
				<path class="st4" d="M165.3,82.8c2.7,3,7.2,3.4,10.6,1.2c0.2-0.1-0.3-0.1-0.4,0c-3.2,2.1-7.3,1.4-9.8-1.4
					C165.7,82.5,165.2,82.7,165.3,82.8L165.3,82.8z"/>
			</g>
		</g>
		<g>
			<g>
				<path class="st4" d="M164.2,83.2c2.7,3,7.2,3.4,10.6,1.2c0.2-0.1-0.3-0.1-0.4,0c-3.2,2.1-7.3,1.4-9.8-1.4
					C164.5,82.9,164.1,83.1,164.2,83.2L164.2,83.2z"/>
			</g>
		</g>
	</g>
	<g>
		<g>
			<g>
				<path class="st4" d="M159.2,83.7c2.2,3,6.3,3.9,9.6,2.2c0.3-0.1-0.1-0.2-0.3-0.1c-3.1,1.6-6.9,0.5-8.9-2.3
					C159.5,83.5,159.1,83.6,159.2,83.7L159.2,83.7z"/>
			</g>
		</g>
		<g>
			<g>
				<path class="st4" d="M161.7,83.3c2.2,3,6.3,3.9,9.6,2.2c0.3-0.1-0.1-0.2-0.3-0.1c-3.1,1.6-6.9,0.5-8.9-2.3
					C162,83.1,161.6,83.2,161.7,83.3L161.7,83.3z"/>
			</g>
		</g>
		<g>
			<g>
				<path class="st4" d="M160.6,83.6c2.2,3,6.3,3.9,9.6,2.2c0.3-0.1-0.1-0.2-0.3-0.1c-3.1,1.6-6.9,0.5-8.9-2.3
					C160.9,83.4,160.5,83.5,160.6,83.6L160.6,83.6z"/>
			</g>
		</g>
	</g>
	<g>
		<g>
			<g>
				<path class="st4" d="M156.2,83.7c1.5,2.5,4.6,3.5,7.2,2.4c0.2-0.1,0-0.2-0.1-0.1c-2.5,1-5.4-0.1-6.7-2.4
					C156.5,83.5,156.2,83.6,156.2,83.7L156.2,83.7z"/>
			</g>
		</g>
		<g>
			<g>
				<path class="st4" d="M158.2,83.6c1.5,2.5,4.6,3.5,7.2,2.4c0.2-0.1,0-0.2-0.1-0.1c-2.5,1-5.4-0.1-6.7-2.4
					C158.5,83.4,158.2,83.5,158.2,83.6L158.2,83.6z"/>
			</g>
		</g>
		<g>
			<g>
				<path class="st4" d="M157.3,83.7c1.5,2.5,4.6,3.5,7.2,2.4c0.2-0.1,0-0.2-0.1-0.1c-2.5,1-5.4-0.1-6.7-2.4
					C157.6,83.5,157.3,83.6,157.3,83.7L157.3,83.7z"/>
			</g>
		</g>
	</g>
	<g>
		<g>
			<g>
				<path class="st4" d="M179.8,75.9c3.8,3.5,9.5,3.5,13.5,0.3c0.3-0.2-0.4-0.2-0.5-0.1c-3.7,3-9,2.7-12.4-0.5
					C180.2,75.5,179.7,75.8,179.8,75.9L179.8,75.9z"/>
			</g>
		</g>
		<g>
			<g>
				<path class="st4" d="M183,74.7c3.8,3.5,9.5,3.5,13.5,0.3c0.3-0.2-0.4-0.2-0.5-0.1c-3.7,3-9,2.7-12.4-0.5
					C183.5,74.3,182.9,74.6,183,74.7L183,74.7z"/>
			</g>
		</g>
		<g>
			<g>
				<path class="st4" d="M181.6,75.4c3.8,3.5,9.5,3.5,13.5,0.3c0.3-0.2-0.4-0.2-0.5-0.1c-3.7,3-9,2.7-12.4-0.5
					C182.1,75,181.5,75.3,181.6,75.4L181.6,75.4z"/>
			</g>
		</g>
	</g>
	<g>
		<g>
			<g>
				<path class="st4" d="M176.6,77.9c3.8,3.5,9.5,3.5,13.5,0.3c0.3-0.2-0.4-0.2-0.5-0.1c-3.7,3-9,2.7-12.4-0.5
					C177.1,77.6,176.5,77.8,176.6,77.9L176.6,77.9z"/>
			</g>
		</g>
		<g>
			<g>
				<path class="st4" d="M179.9,76.8c3.8,3.5,9.5,3.5,13.5,0.3c0.3-0.2-0.4-0.2-0.5-0.1c-3.7,3-9,2.7-12.4-0.5
					C180.3,76.4,179.7,76.6,179.9,76.8L179.9,76.8z"/>
			</g>
		</g>
		<g>
			<g>
				<path class="st4" d="M178.5,77.4c3.8,3.5,9.5,3.5,13.5,0.3c0.3-0.2-0.4-0.2-0.5-0.1c-3.7,3-9,2.7-12.4-0.5
					C178.9,77.1,178.3,77.3,178.5,77.4L178.5,77.4z"/>
			</g>
		</g>
	</g>
	<g>
		<g>
			<g>
				<path class="st4" d="M174.1,80.2c3,2.7,7.5,2.8,10.7,0.3c0.2-0.2-0.3-0.1-0.4,0c-3,2.4-7.1,2.1-9.8-0.4
					C174.4,79.9,174,80.1,174.1,80.2L174.1,80.2z"/>
			</g>
		</g>
		<g>
			<g>
				<path class="st4" d="M176.7,79.3c3,2.7,7.5,2.8,10.7,0.3c0.2-0.2-0.3-0.1-0.4,0c-3,2.4-7.1,2.1-9.8-0.4
					C177,79,176.6,79.2,176.7,79.3L176.7,79.3z"/>
			</g>
		</g>
		<g>
			<g>
				<path class="st4" d="M175.6,79.8c3,2.7,7.5,2.8,10.7,0.3c0.2-0.2-0.3-0.1-0.4,0c-3,2.4-7.1,2.1-9.8-0.4
					C175.9,79.5,175.5,79.7,175.6,79.8L175.6,79.8z"/>
			</g>
		</g>
	</g>
	<g>
		<g>
			<g>
				<path class="st4" d="M170.9,81.9c3,2.7,7.5,2.8,10.7,0.3c0.2-0.2-0.3-0.1-0.4,0c-3,2.4-7.1,2.1-9.8-0.4
					C171.2,81.6,170.8,81.8,170.9,81.9L170.9,81.9z"/>
			</g>
		</g>
		<g>
			<g>
				<path class="st4" d="M173.5,81c3,2.7,7.5,2.8,10.7,0.3c0.2-0.2-0.3-0.1-0.4,0c-3,2.4-7.1,2.1-9.8-0.4
					C173.8,80.7,173.4,80.9,173.5,81L173.5,81z"/>
			</g>
		</g>
		<g>
			<g>
				<path class="st4" d="M172.4,81.5c3,2.7,7.5,2.8,10.7,0.3c0.2-0.2-0.3-0.1-0.4,0c-3,2.4-7.1,2.1-9.8-0.4
					C172.7,81.2,172.3,81.4,172.4,81.5L172.4,81.5z"/>
			</g>
		</g>
	</g>
	<g>
		<g>
			<g>
				<path class="st4" d="M167.2,83.2c3,2.7,7.5,2.8,10.7,0.3c0.2-0.2-0.3-0.1-0.4,0c-3,2.4-7.1,2.1-9.8-0.4
					C167.6,82.9,167.1,83.1,167.2,83.2L167.2,83.2z"/>
			</g>
		</g>
		<g>
			<g>
				<path class="st4" d="M169.8,82.3c3,2.7,7.5,2.8,10.7,0.3c0.2-0.2-0.3-0.1-0.4,0c-3,2.4-7.1,2.1-9.8-0.4
					C170.1,82,169.7,82.2,169.8,82.3L169.8,82.3z"/>
			</g>
		</g>
		<g>
			<g>
				<path class="st4" d="M168.7,82.8c3,2.7,7.5,2.8,10.7,0.3c0.2-0.2-0.3-0.1-0.4,0c-3,2.4-7.1,2.1-9.8-0.4
					C169,82.6,168.6,82.7,168.7,82.8L168.7,82.8z"/>
			</g>
		</g>
	</g>
</g>
</svg>
