<?xml version="1.0" encoding="utf-8"?>
<!-- Generator: Adobe Illustrator 21.0.2, SVG Export Plug-In . SVG Version: 6.00 Build 0)  -->
<svg version="1.1" id="Layer_1" xmlns="http://www.w3.org/2000/svg" xmlns:xlink="http://www.w3.org/1999/xlink" x="0px" y="0px"
	 viewBox="0 0 263.6 99.9" style="enable-background:new 0 0 263.6 99.9;" xml:space="preserve">
<style type="text/css">
	.st0{fill:none;stroke:#000000;}
	.st1{font-family:'Langdon';}
	.st2{font-size:60px;}
	.st3{display:none;fill:none;stroke:#000000;}
</style>
<text transform="matrix(1 0 0 1 0.5002 51.4997)" class="st0 st1 st2">smoky lids</text>
<path class="st3" d="M148.6,73.2c0,0,22.2,5.1,30.5,5.1c-2.7,0-2.1,2.4,30.5-5.1"/>
<path class="st3" d="M54.6,73.2c0,0,20.7,5.1,29,5.1c-2.7,0-2.2,2.3,32-5.1"/>
<g>
	<g>
		<path d="M160.1,72.1c10.1,9.7,24.7,12.1,38.3,12.5c14.2,0.6,27.1-7.8,39.6-13.5c2.4-1.1-1.4-1.1-2.4-0.7
			c-5.8,2.6-11.5,5.3-17.4,7.9c-7.9,3.6-15.4,4.9-24,4c-11.1-1.1-22.1-3.8-30.3-11.7C163,70.1,159.4,71.6,160.1,72.1L160.1,72.1z"/>
	</g>
</g>
<g>
	<g>
		<path d="M94.9,71.7c-9.3,8.9-22.6,11.1-35,11.4c-12.6,0.3-25-7.8-36.1-12.8c-1.1-0.6-4.3,1.1-3.8,1.4c7.9,3.6,15.8,7.6,24,10.8
			c6.9,2.8,13.8,2.5,21,1.8c12.2-1.3,24.4-4.2,33.6-12.9C99.5,70.6,95.8,71,94.9,71.7L94.9,71.7z"/>
	</g>
</g>
<g>
	<g>
		<g>
			<g>
				<path d="M54.4,83.5c-3.5,4.2-9.3,5.1-14,2.4c-0.1-0.1-0.8,0.1-0.7,0.3c5,3.1,11.5,1.8,15.3-2.6C55.2,83.2,54.5,83.4,54.4,83.5
					L54.4,83.5z"/>
			</g>
		</g>
		<g>
			<g>
				<path d="M50.5,82.7c-3.5,4.2-9.3,5.1-14,2.4c-0.1-0.1-0.8,0.1-0.7,0.3c5,3.1,11.5,1.8,15.3-2.6C51.3,82.4,50.6,82.5,50.5,82.7
					L50.5,82.7z"/>
			</g>
		</g>
		<g>
			<g>
				<path d="M52.3,83.2c-3.5,4.2-9.3,5.1-14,2.4c-0.1-0.1-0.8,0.1-0.7,0.3c5,3.1,11.5,1.8,15.3-2.6C53.1,82.9,52.4,83.1,52.3,83.2
					L52.3,83.2z"/>
			</g>
		</g>
	</g>
	<g>
		<g>
			<g>
				<path d="M59.7,83.6c-2.8,4.2-8.1,5.7-12.6,3.6c-0.1-0.1-0.8,0.1-0.6,0.3c4.9,2.2,10.8,0.6,13.8-3.9
					C60.4,83.4,59.7,83.4,59.7,83.6L59.7,83.6z"/>
			</g>
		</g>
		<g>
			<g>
				<path d="M55.9,83.2c-2.8,4.2-8.1,5.7-12.6,3.6c-0.1-0.1-0.8,0.1-0.6,0.3c4.9,2.2,10.8,0.6,13.8-3.9C56.7,82.9,56,83.1,55.9,83.2
					L55.9,83.2z"/>
			</g>
		</g>
		<g>
			<g>
				<path d="M57.6,83.5c-2.8,4.2-8.1,5.7-12.6,3.6c-0.1-0.1-0.8,0.1-0.6,0.3c4.9,2.2,10.8,0.6,13.8-3.9
					C58.3,83.4,57.7,83.4,57.6,83.5L57.6,83.5z"/>
			</g>
		</g>
	</g>
	<g>
		<g>
			<g>
				<path d="M64,83.4c-1.8,3.5-5.8,5-9.4,3.8c-0.1,0-0.6,0.1-0.4,0.3c4,1.4,8.5-0.4,10.4-4C64.5,83.2,64,83.2,64,83.4L64,83.4z"/>
			</g>
		</g>
		<g>
			<g>
				<path d="M61,83.4c-1.8,3.5-5.8,5-9.4,3.8c-0.1,0-0.6,0.1-0.4,0.3c4,1.4,8.5-0.4,10.4-4C61.6,83.2,61.2,83.2,61,83.4L61,83.4z"/>
			</g>
		</g>
		<g>
			<g>
				<path d="M62.3,83.5c-1.8,3.5-5.8,5-9.4,3.8c-0.1,0-0.6,0.1-0.4,0.3c4,1.4,8.5-0.4,10.4-4C62.9,83.4,62.4,83.4,62.3,83.5
					L62.3,83.5z"/>
			</g>
		</g>
	</g>
	<g>
		<g>
			<g>
				<path d="M29,73.5c-4.9,4.9-12.4,5.3-17.9,1.3c-0.3-0.1-1,0.1-0.8,0.3c6,4.4,14.3,3.6,19.6-1.7C30.1,73.2,29.2,73.4,29,73.5
					L29,73.5z"/>
			</g>
		</g>
		<g>
			<g>
				<path d="M24.2,72c-4.9,4.9-12.4,5.3-17.9,1.3c-0.3-0.1-1,0.1-0.8,0.3c6,4.4,14.3,3.6,19.6-1.7C25.3,71.7,24.4,71.8,24.2,72
					L24.2,72z"/>
			</g>
		</g>
		<g>
			<g>
				<path d="M26.3,72.8C21.5,77.7,14,78.1,8.4,74c-0.3-0.1-1,0.1-0.8,0.3c6,4.4,14.3,3.6,19.6-1.7C27.3,72.7,26.5,72.7,26.3,72.8
					L26.3,72.8z"/>
			</g>
		</g>
	</g>
	<g>
		<g>
			<g>
				<path d="M33.7,76.3c-4.9,4.9-12.4,5.3-17.9,1.3c-0.3-0.1-1,0.1-0.8,0.3c6,4.4,14.3,3.6,19.6-1.7C34.8,76,33.8,76.1,33.7,76.3
					L33.7,76.3z"/>
			</g>
		</g>
		<g>
			<g>
				<path d="M29,74.7C24.1,79.6,16.6,80,11,76c-0.3-0.1-1,0.1-0.8,0.3c6,4.4,14.3,3.6,19.6-1.7C29.9,74.5,29.1,74.6,29,74.7L29,74.7
					z"/>
			</g>
		</g>
		<g>
			<g>
				<path d="M31,75.7C26.2,80.6,18.7,81,13.1,77c-0.3-0.1-1,0.1-0.8,0.3c6,4.4,14.3,3.6,19.6-1.7C32,75.4,31.2,75.4,31,75.7L31,75.7
					z"/>
			</g>
		</g>
	</g>
	<g>
		<g>
			<g>
				<path d="M37.7,79.5c-3.9,3.9-9.9,4.2-14.2,1c-0.1-0.1-0.8,0.1-0.7,0.3c4.7,3.5,11.4,2.9,15.4-1.3C38.5,79.2,37.9,79.3,37.7,79.5
					L37.7,79.5z"/>
			</g>
		</g>
		<g>
			<g>
				<path d="M34,78.2c-3.9,3.9-9.9,4.2-14.2,1c-0.1-0.1-0.8,0.1-0.7,0.3c4.7,3.5,11.4,2.9,15.4-1.3C34.8,78.1,34.1,78.1,34,78.2
					L34,78.2z"/>
			</g>
		</g>
		<g>
			<g>
				<path d="M35.5,78.9c-3.9,3.9-9.9,4.2-14.2,1c-0.1-0.1-0.8,0.1-0.7,0.3c4.7,3.5,11.4,2.9,15.4-1.3C36.3,78.8,35.6,78.8,35.5,78.9
					L35.5,78.9z"/>
			</g>
		</g>
	</g>
	<g>
		<g>
			<g>
				<path d="M42.4,81.7c-3.9,3.9-9.9,4.2-14.2,1c-0.1-0.1-0.8,0.1-0.7,0.3c4.7,3.5,11.4,2.9,15.4-1.3C43.3,81.5,42.6,81.5,42.4,81.7
					L42.4,81.7z"/>
			</g>
		</g>
		<g>
			<g>
				<path d="M38.7,80.4c-3.9,3.9-9.9,4.2-14.2,1c-0.1-0.1-0.8,0.1-0.7,0.3c4.7,3.5,11.4,2.9,15.4-1.3C39.5,80.3,38.8,80.3,38.7,80.4
					L38.7,80.4z"/>
			</g>
		</g>
		<g>
			<g>
				<path d="M40.4,81.1c-3.9,3.9-9.9,4.2-14.2,1c-0.1-0.1-0.8,0.1-0.7,0.3c4.7,3.5,11.4,2.9,15.4-1.3C41.2,81,40.5,81.1,40.4,81.1
					L40.4,81.1z"/>
			</g>
		</g>
	</g>
	<g>
		<g>
			<g>
				<path d="M47.9,83.4c-3.9,3.9-9.9,4.2-14.2,1c-0.1-0.1-0.8,0.1-0.7,0.3c4.7,3.5,11.4,2.9,15.4-1.3C48.7,83.2,48,83.2,47.9,83.4
					L47.9,83.4z"/>
			</g>
		</g>
		<g>
			<g>
				<path d="M44.1,82.1c-3.9,3.9-9.9,4.2-14.2,1c-0.1-0.1-0.8,0.1-0.7,0.3c4.7,3.5,11.4,2.9,15.4-1.3C44.9,82,44.2,82,44.1,82.1
					L44.1,82.1z"/>
			</g>
		</g>
		<g>
			<g>
				<path d="M45.6,82.9c-3.9,3.9-9.9,4.2-14.2,1c-0.1-0.1-0.8,0.1-0.7,0.3c4.9,3.5,11.4,2.8,15.6-1.4C46.5,82.7,45.8,82.8,45.6,82.9
					L45.6,82.9z"/>
			</g>
		</g>
	</g>
</g>
<g>
	<g>
		<g>
			<g>
				<path d="M207.1,82.7c3.8,4.2,10,4.7,14.7,1.7c0.3-0.1-0.4-0.1-0.6,0c-4.4,2.9-10.1,1.9-13.6-1.9C207.7,82.3,207,82.6,207.1,82.7
					L207.1,82.7z"/>
			</g>
		</g>
		<g>
			<g>
				<path d="M210.8,81.7c3.8,4.2,10,4.7,14.7,1.7c0.3-0.1-0.4-0.1-0.6,0c-4.4,2.9-10.1,1.9-13.6-1.9
					C211.3,81.3,210.6,81.6,210.8,81.7L210.8,81.7z"/>
			</g>
		</g>
		<g>
			<g>
				<path d="M209.2,82.3c3.8,4.2,10,4.7,14.7,1.7c0.3-0.1-0.4-0.1-0.6,0c-4.4,2.9-10.1,1.9-13.6-1.9
					C209.6,81.9,209.1,82.1,209.2,82.3L209.2,82.3z"/>
			</g>
		</g>
	</g>
	<g>
		<g>
			<g>
				<path d="M202.3,83c3.1,4.2,8.8,5.4,13.3,3.1c0.4-0.1-0.1-0.3-0.4-0.1c-4.3,2.2-9.6,0.7-12.4-3.2C202.7,82.7,202.1,82.8,202.3,83
					L202.3,83z"/>
			</g>
		</g>
		<g>
			<g>
				<path d="M205.8,82.4c3.1,4.2,8.8,5.4,13.3,3.1c0.4-0.1-0.1-0.3-0.4-0.1c-4.3,2.2-9.6,0.7-12.4-3.2
					C206.2,82.1,205.6,82.3,205.8,82.4L205.8,82.4z"/>
			</g>
		</g>
		<g>
			<g>
				<path d="M204.2,82.8c3.1,4.2,8.8,5.4,13.3,3.1c0.4-0.1-0.1-0.3-0.4-0.1c-4.3,2.2-9.6,0.7-12.4-3.2
					C204.6,82.6,204.1,82.7,204.2,82.8L204.2,82.8z"/>
			</g>
		</g>
	</g>
	<g>
		<g>
			<g>
				<path d="M198.1,83c2.1,3.5,6.4,4.9,10,3.3c0.3-0.1,0-0.3-0.1-0.1c-3.5,1.4-7.5-0.1-9.3-3.3C198.5,82.7,198.1,82.8,198.1,83
					L198.1,83z"/>
			</g>
		</g>
		<g>
			<g>
				<path d="M200.9,82.8c2.1,3.5,6.4,4.9,10,3.3c0.3-0.1,0-0.3-0.1-0.1c-3.5,1.4-7.5-0.1-9.3-3.3C201.3,82.6,200.9,82.7,200.9,82.8
					L200.9,82.8z"/>
			</g>
		</g>
		<g>
			<g>
				<path d="M199.6,83c2.1,3.5,6.4,4.9,10,3.3c0.3-0.1,0-0.3-0.1-0.1c-3.5,1.4-7.5-0.1-9.3-3.3C200.1,82.7,199.6,82.8,199.6,83
					L199.6,83z"/>
			</g>
		</g>
	</g>
	<g>
		<g>
			<g>
				<path d="M232.9,73c5.3,4.9,13.2,4.9,18.8,0.4c0.4-0.3-0.6-0.3-0.7-0.1c-5.1,4.2-12.5,3.8-17.2-0.7
					C233.4,72.5,232.7,72.9,232.9,73L232.9,73z"/>
			</g>
		</g>
		<g>
			<g>
				<path d="M237.3,71.4c5.3,4.9,13.2,4.9,18.8,0.4c0.4-0.3-0.6-0.3-0.7-0.1c-5.1,4.2-12.5,3.8-17.2-0.7
					C238,70.8,237.2,71.2,237.3,71.4L237.3,71.4z"/>
			</g>
		</g>
		<g>
			<g>
				<path d="M235.4,72.3c5.3,4.9,13.2,4.9,18.8,0.4c0.4-0.3-0.6-0.3-0.7-0.1c-5.1,4.2-12.5,3.8-17.2-0.7
					C236.1,71.8,235.2,72.2,235.4,72.3L235.4,72.3z"/>
			</g>
		</g>
	</g>
	<g>
		<g>
			<g>
				<path d="M226.5,74.9c5.3,4.9,13.2,4.9,18.8,0.4c0.4-0.3-0.6-0.3-0.7-0.1c-5.1,4.2-12.5,3.8-17.2-0.7
					C227.2,74.5,226.3,74.8,226.5,74.9L226.5,74.9z"/>
			</g>
		</g>
		<g>
			<g>
				<path d="M231,73.4c5.3,4.9,13.2,4.9,18.8,0.4c0.4-0.3-0.6-0.3-0.7-0.1c-5.1,4.2-12.5,3.8-17.2-0.7
					C231.6,72.8,230.8,73.1,231,73.4L231,73.4z"/>
			</g>
		</g>
		<g>
			<g>
				<path d="M229.1,74.2c5.3,4.9,13.2,4.9,18.8,0.4c0.4-0.3-0.6-0.3-0.7-0.1c-5.1,4.2-12.5,3.8-17.2-0.7
					C229.7,73.8,228.8,74.1,229.1,74.2L229.1,74.2z"/>
			</g>
		</g>
	</g>
	<g>
		<g>
			<g>
				<path d="M223,78.1c4.2,3.8,10.4,3.9,14.9,0.4c0.3-0.3-0.4-0.1-0.6,0c-4.2,3.3-9.9,2.9-13.6-0.6C223.4,77.7,222.8,78,223,78.1
					L223,78.1z"/>
			</g>
		</g>
		<g>
			<g>
				<path d="M226.6,76.9c4.2,3.8,10.4,3.9,14.9,0.4c0.3-0.3-0.4-0.1-0.6,0c-4.2,3.3-9.9,2.9-13.6-0.6
					C227,76.5,226.5,76.7,226.6,76.9L226.6,76.9z"/>
			</g>
		</g>
		<g>
			<g>
				<path d="M225.1,77.6c4.2,3.8,10.4,3.9,14.9,0.4c0.3-0.3-0.4-0.1-0.6,0c-4.2,3.3-9.9,2.9-13.6-0.6
					C225.5,77.1,224.9,77.4,225.1,77.6L225.1,77.6z"/>
			</g>
		</g>
	</g>
	<g>
		<g>
			<g>
				<path d="M218.5,80.5c4.2,3.8,10.4,3.9,14.9,0.4c0.3-0.3-0.4-0.1-0.6,0c-4.2,3.3-9.9,2.9-13.6-0.6
					C219,80.1,218.4,80.3,218.5,80.5L218.5,80.5z"/>
			</g>
		</g>
		<g>
			<g>
				<path d="M222.2,79.2c4.2,3.8,10.4,3.9,14.9,0.4c0.3-0.3-0.4-0.1-0.6,0c-4.2,3.3-9.9,2.9-13.6-0.6
					C222.6,78.8,222,79.1,222.2,79.2L222.2,79.2z"/>
			</g>
		</g>
		<g>
			<g>
				<path d="M220.6,79.9c4.2,3.8,10.4,3.9,14.9,0.4c0.3-0.3-0.4-0.1-0.6,0c-4.2,3.3-9.9,2.9-13.6-0.6
					C221,79.5,220.5,79.8,220.6,79.9L220.6,79.9z"/>
			</g>
		</g>
	</g>
	<g>
		<g>
			<g>
				<path d="M213.4,82.3c4.2,3.8,10.4,3.9,14.9,0.4c0.3-0.3-0.4-0.1-0.6,0c-4.2,3.3-9.9,2.9-13.6-0.6
					C214,81.9,213.3,82.1,213.4,82.3L213.4,82.3z"/>
			</g>
		</g>
		<g>
			<g>
				<path d="M217,81c4.2,3.8,10.4,3.9,14.9,0.4c0.3-0.3-0.4-0.1-0.6,0c-4.2,3.3-9.9,2.9-13.6-0.6C217.4,80.6,216.9,80.9,217,81
					L217,81z"/>
			</g>
		</g>
		<g>
			<g>
				<path d="M215.5,81.7c4.2,3.8,10.4,3.9,14.9,0.4c0.3-0.3-0.4-0.1-0.6,0c-4.2,3.3-9.9,2.9-13.6-0.6
					C215.9,81.5,215.3,81.6,215.5,81.7L215.5,81.7z"/>
			</g>
		</g>
	</g>
</g>
</svg>
